<mxfile host="Electron" modified="2024-01-22T07:26:25.427Z" agent="Mozilla/5.0 (Windows NT 10.0; Win64; x64) AppleWebKit/537.36 (KHTML, like Gecko) draw.io/22.0.3 Chrome/114.0.5735.289 Electron/25.8.4 Safari/537.36" etag="d_LdrAVYBYlz8J6xa61n" version="22.0.3" type="device">
  <diagram name="第 1 页" id="vCvP0_fyoK6c63mQwlZR">
    <mxGraphModel dx="378" dy="265" grid="1" gridSize="10" guides="1" tooltips="1" connect="1" arrows="1" fold="1" page="1" pageScale="1" pageWidth="827" pageHeight="1169" math="0" shadow="0">
      <root>
        <mxCell id="0" />
        <mxCell id="1" parent="0" />
        <mxCell id="00KRPiZMxSmSsJs6XVJr-1" value="" style="ellipse;whiteSpace=wrap;html=1;aspect=fixed;" vertex="1" parent="1">
          <mxGeometry x="240" y="240" width="160" height="160" as="geometry" />
        </mxCell>
        <mxCell id="00KRPiZMxSmSsJs6XVJr-4" value="" style="endArrow=classic;html=1;rounded=0;" edge="1" parent="1">
          <mxGeometry width="50" height="50" relative="1" as="geometry">
            <mxPoint x="320" y="320" as="sourcePoint" />
            <mxPoint x="440" y="320" as="targetPoint" />
          </mxGeometry>
        </mxCell>
        <mxCell id="00KRPiZMxSmSsJs6XVJr-5" value="" style="endArrow=classic;html=1;rounded=0;" edge="1" parent="1">
          <mxGeometry width="50" height="50" relative="1" as="geometry">
            <mxPoint x="320" y="320" as="sourcePoint" />
            <mxPoint x="320" y="200" as="targetPoint" />
          </mxGeometry>
        </mxCell>
        <mxCell id="00KRPiZMxSmSsJs6XVJr-7" value="" style="endArrow=none;html=1;rounded=0;" edge="1" parent="1">
          <mxGeometry width="50" height="50" relative="1" as="geometry">
            <mxPoint x="320" y="320" as="sourcePoint" />
            <mxPoint x="440" y="250" as="targetPoint" />
          </mxGeometry>
        </mxCell>
        <mxCell id="00KRPiZMxSmSsJs6XVJr-9" value="" style="endArrow=classic;html=1;rounded=0;dashed=1;dashPattern=1 1;" edge="1" parent="1">
          <mxGeometry width="50" height="50" relative="1" as="geometry">
            <mxPoint x="407" y="311" as="sourcePoint" />
            <mxPoint x="367" y="241" as="targetPoint" />
          </mxGeometry>
        </mxCell>
        <mxCell id="00KRPiZMxSmSsJs6XVJr-10" value="&lt;font style=&quot;font-size: 10px;&quot;&gt;N&lt;/font&gt;" style="text;html=1;strokeColor=none;fillColor=none;align=center;verticalAlign=middle;whiteSpace=wrap;rounded=0;" vertex="1" parent="1">
          <mxGeometry x="350" y="220" width="20" height="20" as="geometry" />
        </mxCell>
        <mxCell id="00KRPiZMxSmSsJs6XVJr-11" value="&lt;font style=&quot;font-size: 10px;&quot;&gt;X(Y)&lt;/font&gt;" style="text;html=1;strokeColor=none;fillColor=none;align=center;verticalAlign=middle;whiteSpace=wrap;rounded=0;" vertex="1" parent="1">
          <mxGeometry x="440" y="310" width="20" height="20" as="geometry" />
        </mxCell>
        <mxCell id="00KRPiZMxSmSsJs6XVJr-12" value="&lt;font style=&quot;font-size: 10px;&quot;&gt;Z&lt;/font&gt;" style="text;html=1;strokeColor=none;fillColor=none;align=center;verticalAlign=middle;whiteSpace=wrap;rounded=0;" vertex="1" parent="1">
          <mxGeometry x="310" y="180" width="20" height="20" as="geometry" />
        </mxCell>
        <mxCell id="00KRPiZMxSmSsJs6XVJr-13" value="&lt;font style=&quot;font-size: 10px;&quot;&gt;O&lt;/font&gt;" style="text;html=1;strokeColor=none;fillColor=none;align=center;verticalAlign=middle;whiteSpace=wrap;rounded=0;" vertex="1" parent="1">
          <mxGeometry x="301" y="309" width="20" height="20" as="geometry" />
        </mxCell>
        <mxCell id="00KRPiZMxSmSsJs6XVJr-14" value="&lt;font style=&quot;font-size: 10px;&quot;&gt;O(E)&lt;/font&gt;" style="text;html=1;strokeColor=none;fillColor=none;align=center;verticalAlign=middle;whiteSpace=wrap;rounded=0;" vertex="1" parent="1">
          <mxGeometry x="394" y="270" width="20" height="20" as="geometry" />
        </mxCell>
        <mxCell id="00KRPiZMxSmSsJs6XVJr-15" value="" style="endArrow=classic;html=1;rounded=0;" edge="1" parent="1">
          <mxGeometry width="50" height="50" relative="1" as="geometry">
            <mxPoint x="390" y="280" as="sourcePoint" />
            <mxPoint x="371" y="290" as="targetPoint" />
          </mxGeometry>
        </mxCell>
        <mxCell id="00KRPiZMxSmSsJs6XVJr-16" value="&lt;font style=&quot;font-size: 10px;&quot;&gt;D&lt;/font&gt;" style="text;html=1;strokeColor=none;fillColor=none;align=center;verticalAlign=middle;whiteSpace=wrap;rounded=0;" vertex="1" parent="1">
          <mxGeometry x="360" y="289" width="20" height="20" as="geometry" />
        </mxCell>
        <mxCell id="00KRPiZMxSmSsJs6XVJr-18" value="" style="endArrow=classic;html=1;rounded=0;dashed=1;dashPattern=1 1;" edge="1" parent="1">
          <mxGeometry width="50" height="50" relative="1" as="geometry">
            <mxPoint x="340" y="279.76" as="sourcePoint" />
            <mxPoint x="460" y="279.76" as="targetPoint" />
          </mxGeometry>
        </mxCell>
        <mxCell id="00KRPiZMxSmSsJs6XVJr-19" value="&lt;font style=&quot;font-size: 10px;&quot;&gt;X&#39;(Y&#39;)&lt;/font&gt;" style="text;html=1;strokeColor=none;fillColor=none;align=center;verticalAlign=middle;whiteSpace=wrap;rounded=0;" vertex="1" parent="1">
          <mxGeometry x="470" y="269" width="20" height="20" as="geometry" />
        </mxCell>
        <mxCell id="00KRPiZMxSmSsJs6XVJr-20" value="&lt;span style=&quot;font-size: 10px;&quot;&gt;φ&lt;/span&gt;" style="text;html=1;strokeColor=none;fillColor=none;align=center;verticalAlign=middle;whiteSpace=wrap;rounded=0;" vertex="1" parent="1">
          <mxGeometry x="331" y="302" width="20" height="20" as="geometry" />
        </mxCell>
      </root>
    </mxGraphModel>
  </diagram>
</mxfile>
